<svg width="110" height="110" viewBox="0 0 110 110" fill="none" xmlns="http://www.w3.org/2000/svg">
<g clip-path="url(#clip0_712_354)">
<path d="M110 55C110 85.3757 85.3757 110 55 110C24.6243 110 0 85.3757 0 55C0 24.6243 24.6243 0 55 0C85.3757 0 110 24.6243 110 55Z" fill="#222823"/>
<path d="M16.0299 17.9352C15.6756 18.3406 15.4456 19.071 15.4716 19.567C15.5265 20.6141 14.6574 21.4333 13.4832 21.5501C13.0552 21.5725 12.5404 21.9863 12.2482 22.5542C11.4615 23.9217 12.8207 25.2873 14.4561 24.7595C16.7785 24.0299 23.4053 26.6114 26.5039 29.4331C28.0235 30.7902 29.4 32.4864 29.5981 33.1944C29.7961 33.9025 30.4757 34.5852 31.1264 34.7169C31.7236 34.8514 33.81 36.7867 35.7504 39.0059C37.6936 41.2803 39.5068 43.1194 39.7743 43.1054C40.0953 43.0886 40.3353 43.5733 40.3642 44.1244C40.396 44.7306 40.6418 45.3256 40.9179 45.4769C41.1406 45.631 41.2852 46.3419 41.2157 47.0639C41.0956 47.8438 41.4065 48.6564 41.9082 49.017C42.4128 49.4326 42.8336 50.2947 42.8711 51.0112C42.9086 51.7276 43.38 52.5318 43.983 52.7765C45.1947 53.3761 48.3176 59.7332 48.128 61.2352C47.9356 62.682 33.2727 69.5292 31.8976 68.8828C30.8522 68.385 30.3433 66.8644 30.3174 64.3238C30.3494 62.8853 30.1238 62.6761 29.0002 62.735C27.2882 62.8247 26.9193 64.9992 28.5142 65.7445C29.7794 66.3413 30.4299 68.5177 29.8037 69.8767C29.461 70.5026 29.5998 71.1032 30.1665 71.6813C32.1575 73.8427 31.9299 82.8068 29.7825 83.8035C29.4167 83.9885 29.0652 84.449 29.0855 84.8348C29.1346 85.7716 24.0575 88.1929 22.5927 87.8828C20.9674 87.5812 19.7614 89.1364 20.785 90.2432C21.7523 91.2977 23.3545 91.1585 23.6655 89.9265C24.03 88.6917 28.2655 86.5908 29.736 87.0111C30.3896 87.1979 31.1864 87.0456 31.5942 86.6374C32.1061 86.1685 32.5341 86.1461 33.419 86.6523C34.3574 87.1557 34.6755 87.0838 35.7442 85.9778C37.6227 83.9453 40.3296 84.4113 40.4538 86.781C40.5202 88.0485 41.5121 88.5491 43.3789 88.3407C44.4967 88.1716 44.9927 88.422 45.2471 89.1823C45.8977 91.3586 48.7102 90.7691 48.5918 88.5096C48.5311 87.3523 47.4322 86.8573 46.0078 87.3188C45.2704 87.5785 44.6616 87.2236 43.9676 86.2652C43.3893 85.4666 42.6677 85.0071 42.2484 85.1949C41.8796 85.3247 41.1697 85.0856 40.6593 84.5598C39.8105 83.7201 39.906 83.494 41.9001 81.6212C43.0758 80.5096 44.6853 79.4858 45.4257 79.2812C46.5883 78.944 46.7343 78.6601 46.6723 76.4529C46.6118 73.2509 49.1689 64.7173 50.6569 63.4236C52.0944 62.1878 59.1697 61.0433 60.286 61.869C60.6778 62.18 61.5989 62.3528 62.2915 62.2612C62.9871 62.2248 64.449 62.4797 65.5421 62.8645L67.5144 63.6453L67.6038 67.3984C67.6614 70.5452 67.5385 71.27 66.6101 71.9818C65.9911 72.4563 65.4995 73.311 65.5254 73.807C65.589 75.0194 61.2131 79.5591 59.929 79.6264C58.6985 79.6909 57.7512 81.0668 58.237 82.1465C58.4235 82.6341 59.0323 82.989 59.5673 82.961C60.5303 82.9105 61.855 81.5701 61.3474 81.0993C60.7835 80.5763 65.9924 75.5509 67.476 75.1968C69.7564 74.6905 79.184 78.5067 79.9214 80.2917C80.5936 81.859 80.5539 92.3606 79.8583 92.3971C79.5908 92.4111 79.3941 92.753 79.4144 93.1387C79.4635 94.0756 60.8628 104.611 59.8261 104.278C58.516 103.849 57.4864 104.677 57.5586 106.055C57.6135 107.102 57.8954 107.363 58.9655 107.307C59.768 107.265 60.4433 106.843 60.6314 106.336C61.0407 104.933 78.7693 95.1619 80.2876 95.4692C82.0763 95.8175 83.0683 94.2735 81.9709 92.7837C80.8706 91.2388 81.0998 81.2799 82.2393 80.5018C83.1734 79.9002 83.1721 78.8503 82.2698 78.0135C81.8187 77.595 81.5687 75.895 81.4749 73.0817C81.4434 68.3862 81.9293 67.4213 84.6044 67.2811C86.37 67.1885 87.0497 65.8267 86.0622 64.3864C85.0747 62.9461 85.095 61.2872 86.2013 60.8977C90.4656 59.3479 94.4465 58.5314 95.1174 59.0489C95.7319 59.514 96.2077 59.3786 97.1896 58.664C98.7904 57.4749 102.051 57.2487 103.179 58.2948C104.194 59.2363 104.937 59.0868 105.67 57.7222C106.061 56.9833 105.984 56.5452 105.254 55.9204C104.352 55.0835 104.191 55.0919 103.004 55.983C101.353 57.2301 98.306 57.445 97.3387 56.3905C96.941 55.9692 96.3323 55.6143 95.9043 55.6367C94.9412 55.6872 89.7217 48.2243 89.7565 46.8409C89.7782 46.2319 89.4139 45.4221 89.0134 44.9457C87.9926 43.894 85.5809 19.3742 86.3648 17.9516C87.098 16.5869 86.271 15.1382 84.8915 15.4315C84.0412 15.5866 83.6421 16.1601 83.4829 17.2184C83.2268 19.4975 73.3106 33.9982 71.7735 34.355C70.1322 34.7726 53.5257 23.9829 52.9431 22.0793C52.6857 21.2639 52.1305 20.9062 51.2745 20.951C50.5254 20.9903 49.895 21.2444 49.8053 21.5806C49.7156 21.9169 47.308 22.0431 42.9512 21.8293C37.8989 21.652 36.0596 21.3616 35.5434 20.7255C35.0244 20.0343 34.7005 19.996 33.8733 20.592C32.6297 21.4308 30.7529 20.424 29.8406 18.3719C29.0469 16.5346 26.8677 16.9251 26.9717 18.9091C27.0294 20.0112 27.3678 20.3251 28.6576 20.368C31.0797 20.5174 31.8185 21.3076 31.506 23.5344C31.3975 24.5347 31.0446 25.99 30.7611 26.7233C30.2925 28.0188 30.1826 27.9693 24.7228 24.1109C21.7124 21.9477 18.9073 19.608 18.4923 18.8561C17.6595 17.2972 16.8903 16.9507 16.0299 17.9352ZM21.7137 22.9976C24.2759 24.7974 25.3935 26.673 23.4805 25.9996C22.934 25.8072 21.1337 25.2384 19.4969 24.7163C14.8568 23.1912 13.8808 21.9713 16.676 21.0512C18.1538 20.5869 18.2637 20.6364 21.7137 22.9976ZM86.2105 31.388C86.9923 39.1388 87.3231 44.4265 87.0165 44.7188C86.7663 45.0635 86.5841 45.6809 86.6129 46.232C86.6707 47.3342 80.9355 52.553 79.5444 52.6259C77.8859 52.7128 77.2033 54.0196 78.0418 55.6887C78.9397 57.4652 78.5883 57.9257 75.9609 57.9529C74.7274 57.9623 73.6718 58.2939 73.3233 58.8095C72.418 59.9622 63.5902 60.4248 62.62 59.3152C61.6498 58.2056 61.2409 53.4746 61.9915 52.4406C62.3429 51.9801 62.7218 51.0208 62.7912 50.2987C62.9215 48.6894 70.6352 38.2277 71.7587 38.1688C72.8794 38.0548 73.8801 36.6761 73.6112 35.6402C73.4132 34.9322 83.9412 18.797 84.6845 18.6475C84.845 18.6391 85.5227 24.4059 86.2105 31.388ZM49.8586 23.6225C50.1637 24.3249 42.7271 42.1217 41.9 42.7177C39.728 44.2683 34.5347 33.212 34.8229 27.4498C35.056 22.6852 35.3148 22.5058 43.0538 22.7634C47.1373 22.8809 49.7285 23.1872 49.8586 23.6225ZM33.7326 27.1201C33.8813 30.9806 33.2016 32.3425 31.8033 31.2553C30.8534 30.5314 30.8578 29.5917 31.743 26.0087C32.7656 21.9763 33.597 22.4853 33.7326 27.1201ZM30.5266 30.438C30.5757 31.3749 30.1361 31.1769 27.7879 29.3658C25.0479 27.2437 24.6445 26.7122 25.2519 26.0173C25.8086 25.3802 30.4659 29.2807 30.5266 30.438ZM60.2767 28.9341C64.2226 31.5456 68.1122 34.1048 68.9465 34.669C69.7808 35.2331 70.4691 36.0812 70.5457 36.5193C70.6034 37.6215 62.2824 48.7781 61.1169 49.0602C60.6411 49.1957 60.0193 49.6151 59.7185 50.0177C58.6701 51.5094 55.0015 52.1438 50.6809 51.5965C46.1998 51.0577 45.03 50.2349 44.8437 47.7027C44.8004 46.876 44.5459 46.1157 44.3232 45.9616C44.0471 45.8103 43.784 44.8846 43.6814 43.9506C43.495 41.4184 50.8057 24.2912 52.0898 24.224C52.6248 24.1959 56.2772 26.3254 60.2767 28.9341ZM35.4889 35.0409C36.1728 36.8286 36.5718 38.2998 36.4113 38.3082C35.8198 38.2839 32.8717 34.2386 32.8284 33.412C32.7822 32.5302 33.2291 31.8437 33.8176 31.8128C34.0316 31.8016 34.7516 33.2559 35.4889 35.0409ZM43.7679 47.6485C43.8314 48.8609 43.7331 49.0319 43.0058 48.4621C42.5575 48.0988 42.1483 47.4571 42.1281 47.0713C42.105 46.6304 42.4622 46.2802 42.8902 46.2577C43.4253 46.2297 43.7216 46.7668 43.7679 47.6485ZM91.6417 52.1024C94.023 55.5695 94.5088 56.6493 93.9998 57.1733C93.6961 57.5208 91.436 58.4129 89.0601 59.1453L84.7336 60.5325L82.1801 58.898C79.9056 57.4699 78.8617 55.9773 80.0922 55.9128C80.3598 55.8988 80.756 55.2701 80.9831 54.4846C81.3837 52.9163 86.4856 47.8965 87.8202 47.7713C88.3018 47.7461 89.898 49.5413 91.6417 52.1024ZM50.8847 52.4148C52.1297 52.6258 53.3241 52.8948 53.4904 52.9966C53.9415 53.4151 50.2248 60.2964 49.6811 60.1591C49.2444 60.0162 45.6675 53.1855 45.6271 52.414C45.6097 52.0834 48.3976 52.0478 50.8847 52.4148ZM60.8214 55.707C61.0554 60.1709 60.3381 60.8163 55.0949 61.0911C52.7943 61.2117 50.913 61.1445 50.9044 60.9791C50.8928 60.7587 51.8141 58.8868 52.9378 56.7833C54.744 53.373 55.1996 52.8518 57.1025 52.31C60.0076 51.4393 60.6279 52.0147 60.8214 55.707ZM81.8489 59.7442C84.4617 61.4862 84.8635 63.0124 83.5432 65.4578C82.1158 67.9088 81.2178 68.1769 76.1337 67.3934C71.9144 66.7304 68.8431 65.4546 68.7767 64.187C68.7392 63.4706 72.7014 61.2736 74.1994 61.1951C74.9485 61.1558 76.0937 60.4879 76.8023 59.6772C78.422 57.8239 79.0134 57.8482 81.8489 59.7442ZM71.8107 60.6571C71.8251 60.9327 70.891 61.5343 69.7876 61.9789C68.0538 62.6776 67.4118 62.7113 65.8791 62.1285L64.0731 61.4495L67.5334 60.9366C69.4508 60.6703 71.1542 60.4152 71.4188 60.3461C71.63 60.2798 71.7991 60.4367 71.8107 60.6571ZM47.7025 67.4467C47.1138 69.5222 46.2923 72.273 45.8772 73.5657C45.5156 74.8557 44.8272 76.0522 44.4614 76.2372C44.042 76.4249 43.6993 77.0508 43.7282 77.6019C43.7946 78.8694 39.3565 83.2465 37.4564 83.8435C35.1341 84.573 34.1162 83.5764 33.2185 79.7552C32.1762 75.2232 32.0145 72.1371 32.8099 70.9349C33.4563 69.9616 47.7953 63.0762 48.4576 63.4283C48.6803 63.5824 48.3447 65.3684 47.7025 67.4467ZM75.7433 68.1323L80.2894 68.8887L80.5118 73.1321C80.6331 75.4467 80.5289 77.5521 80.2165 77.7342C79.44 78.2723 69.6855 74.3626 68.8166 73.1372C68.1818 72.2863 68.1501 71.6801 68.5507 70.1118C69.313 67.2535 69.5776 67.1844 75.7433 68.1323ZM33.0129 84.0211C32.5225 85.9256 31.5683 84.0968 31.8779 81.8149L32.1962 79.6983L32.7108 81.3291C33.0246 82.1969 33.1416 83.4064 33.0129 84.0211Z" fill="#81C0DE" fill-opacity="0.95"/>
</g>
<defs>
<clipPath id="clip0_712_354">
<rect width="110" height="110" fill="white"/>
</clipPath>
</defs>
</svg>
